<svg xmlns="http://www.w3.org/2000/svg" viewBox="0 0 66.14 78.85"><defs><style>.cls-1{fill:#7f1084;}.cls-2{fill:#fff;}.cls-3{fill:#f19db5;}.cls-4{fill:#404040;}</style></defs><g id="レイヤー_2" data-name="レイヤー 2"><g id="design"><polygon class="cls-1" points="55.32 8.27 55.32 50.77 14.29 50.77 11.14 54.03 58.78 54.03 58.78 4.69 55.32 8.27"/><polygon class="cls-2" points="6.79 49.07 53.51 0.68 53.51 49.07 6.79 49.07"/><path class="cls-3" d="M53.24,1.36V48.79H7.43ZM53.78,0,6.14,49.34H53.78Z"/><path class="cls-3" d="M42.79,36.78l-6.14,8.3h5v2h1.19v-2h1.27v-.34H42.79Zm-1.19,8H37.33L41.6,39Z"/><path class="cls-3" d="M48.29,40.39a3.31,3.31,0,0,0-2.38,1h0c-.12-2.49,1-4.5,2.92-4.26a2.79,2.79,0,0,1,2.24,2.27l.34,0a3.15,3.15,0,0,0-3.17-2.62,3.24,3.24,0,0,0-2.78,1.86c-.52,1-.79,2.45-.66,5.11a3.48,3.48,0,0,0,3.49,3.63,3.47,3.47,0,0,0,0-6.93M48.2,47C47,47,46,45.67,45.89,44v-.14h0c0-1.73,1-3.13,2.31-3.13s2.3,1.4,2.3,3.13S49.47,47,48.2,47"/><path class="cls-3" d="M51.3,63.28l-.06-.06c-.62.38-1.17.69-1.7,1V60.4h1.62v-.25l-.56-.54-.54.52h-.52V56.35h-.79v3.78H47v.27h1.75v4.12a7.64,7.64,0,0,1-1.42.42h0l.23.67,0,0a9.31,9.31,0,0,0,3.74-2.32"/><path class="cls-3" d="M56.18,65.17a11,11,0,0,0,2.33-5h0v-.21L58,59.39l-.54.52H53c0-.76.06-1.58.06-2.44h5.46v-.25L58,56.68l-.54.52H52v.32c0,.19,0,.65,0,1.28,0,.33,0,.7,0,1.11h0v.27h0a25.86,25.86,0,0,1-.43,4,7.85,7.85,0,0,1-1.35,3.39l.07.06a8.57,8.57,0,0,0,1.93-3.21,16.87,16.87,0,0,0,.74-4.2h4.41a9.88,9.88,0,0,1-1.66,4.4,9.3,9.3,0,0,1-1.37-3.19v0l-.85.31v0a9,9,0,0,0,1.75,3.54,11.85,11.85,0,0,1-2.88,2.54l0,.07a10.61,10.61,0,0,0,3.26-2.14,8.52,8.52,0,0,0,3.91,2.24l0-.08a12.2,12.2,0,0,1-3.46-2.68"/><path class="cls-3" d="M35.65,59.43v-.21l-.57-.54-.54.52H34V56.79l.46-.44H33.21V59.2H31.49v.27h1.63a14.71,14.71,0,0,1-2,5.81l.07,0a11.07,11.07,0,0,0,2.06-3.22V68H34V59.47h1.65Z"/><path class="cls-3" d="M35.34,62.5a.32.32,0,0,0,.16-.14.48.48,0,0,0,.06-.24s0-.06,0-.09,0-.2-.07-.27a2.52,2.52,0,0,0-1.33-1.29l0,.07a3,3,0,0,1,.68,1.14,3.31,3.31,0,0,1,.1.4.91.91,0,0,0,.1.28.34.34,0,0,0,.26.15Z"/><path class="cls-3" d="M36.66,61.12h2.43V56.78l-.46-.43-.44.43H36.6l-.73-.43v4.77Zm0-.26V59.75H38.4v1.11Zm0-2.45H38.4v1.08H36.66ZM38.4,57v1.1H36.66V57Z"/><path class="cls-3" d="M42.89,63.12l-.53.52h-4l.55-.88H38l-.52.88H35v.27h2.32L36.13,66H37a14,14,0,0,1,2.12.14,8,8,0,0,1-4,1.56v.11a8.94,8.94,0,0,0,4.83-1.5,8.8,8.8,0,0,1,3.34,1.58l.18-.11a9.72,9.72,0,0,0-3.07-1.85,5,5,0,0,0,1.26-2h1.83v-.27h0Zm-3.28,2.51a8,8,0,0,0-2.19-.4l.83-1.32H40.6A3.71,3.71,0,0,1,39.61,65.63Z"/><path class="cls-3" d="M35.6,62.66a5,5,0,0,0,1.82-1.24h-.91a2.72,2.72,0,0,1-.95,1.16Z"/><path class="cls-3" d="M39.83,61.12H43V56.78l-.45-.43-.44.43H40.56l-.73-.43v.43h0Zm.79-.26V59.75h1.74v1.11Zm0-2.45h1.74v1.08H40.62ZM42.36,57v1.1H40.62V57Z"/><path class="cls-3" d="M37.56,61.42a4.83,4.83,0,0,0,1.82,1.24l0-.08a2.72,2.72,0,0,1-1-1.16Z"/><path class="cls-3" d="M41.38,61.42h-.91a2.67,2.67,0,0,1-1,1.16l.05.08A5,5,0,0,0,41.38,61.42Z"/><path class="cls-3" d="M41.52,61.42a4.87,4.87,0,0,0,1.81,1.24l.05-.08a2.72,2.72,0,0,1-1-1.16Z"/><path class="cls-4" d="M.74,78.64A1.38,1.38,0,0,1,.2,78,2.49,2.49,0,0,1,0,77a2.57,2.57,0,0,1,.2-1.06,1.43,1.43,0,0,1,.54-.64A1.58,1.58,0,0,1,1.55,75a1.58,1.58,0,0,1,.81.21,1.43,1.43,0,0,1,.54.64A2.57,2.57,0,0,1,3.1,77a2.49,2.49,0,0,1-.2,1,1.38,1.38,0,0,1-.54.64,1.58,1.58,0,0,1-.81.21A1.58,1.58,0,0,1,.74,78.64Zm1.6-.54a2.58,2.58,0,0,0,0-2.3.9.9,0,0,0-.8-.41.89.89,0,0,0-.79.41,2.58,2.58,0,0,0,0,2.3.9.9,0,0,0,.79.4A.91.91,0,0,0,2.34,78.1Z"/><path class="cls-4" d="M4.67,78.74a.2.2,0,0,1,0-.09.17.17,0,0,1,.06-.14.23.23,0,0,1,.15-.05H5v-3l-.13,0a.39.39,0,0,1-.17-.07.2.2,0,0,1-.05-.14c0-.07,0-.1.08-.1h2.5v.75a.08.08,0,0,1-.09.09C7.06,76,7,75.87,7,75.7l0-.24H5.46v1.37H6.65l.06-.23c0-.11.06-.16.12-.16a.07.07,0,0,1,.08.08v1a.07.07,0,0,1-.08.08c-.06,0-.1,0-.12-.16l-.06-.24H5.46v1.3l.22.07a.34.34,0,0,1,.12.06.17.17,0,0,1,0,.1s0,.08-.06.08h-1A.08.08,0,0,1,4.67,78.74Z"/><path class="cls-4" d="M8.92,78.74a.12.12,0,0,1,0-.09A.17.17,0,0,1,9,78.51a.25.25,0,0,1,.16-.05h.12v-3l-.13,0a.46.46,0,0,1-.17-.07.2.2,0,0,1,0-.14c0-.07,0-.1.08-.1h2.5v.75c0,.06,0,.09-.08.09s-.12-.08-.16-.25l-.05-.24H9.71v1.37H10.9l0-.23c0-.11.07-.16.13-.16s.07,0,.07.08v1c0,.05,0,.08-.07.08s-.1,0-.13-.16l0-.24H9.71v1.3l.22.07a.23.23,0,0,1,.11.06.13.13,0,0,1,0,.1s0,.08-.07.08H9A.07.07,0,0,1,8.92,78.74Z"/><path class="cls-4" d="M13.17,78.74a.12.12,0,0,1,0-.09.17.17,0,0,1,.06-.14.25.25,0,0,1,.16-.05h.11v-3h-.23a.08.08,0,0,1-.07,0,.17.17,0,0,1,0-.1.15.15,0,0,1,.06-.13.25.25,0,0,1,.16,0h.9a.07.07,0,0,1,.07.08c0,.08-.05.13-.16.16l-.22.07v3l.22.07c.11,0,.16.08.16.16a.07.07,0,0,1-.07.08h-1A.07.07,0,0,1,13.17,78.74Z"/><path class="cls-4" d="M16.64,78.63a1.51,1.51,0,0,1-.58-.64,2.71,2.71,0,0,1,0-2.09,1.49,1.49,0,0,1,.57-.64,1.43,1.43,0,0,1,.79-.22,1.8,1.8,0,0,1,.62.11,1.29,1.29,0,0,1,.47.29v.64c0,.06,0,.1-.09.1a.12.12,0,0,1-.1-.06.63.63,0,0,1-.06-.17l-.07-.36a1.05,1.05,0,0,0-.3-.15,1.6,1.6,0,0,0-.39,0,1,1,0,0,0-.61.18,1.12,1.12,0,0,0-.41.53,2.3,2.3,0,0,0-.14.84,2.15,2.15,0,0,0,.15.85,1.19,1.19,0,0,0,.42.53,1.11,1.11,0,0,0,.63.18,1.16,1.16,0,0,0,.74-.21l.08-.06.06,0a.14.14,0,0,1,.09.05.21.21,0,0,1,0,.11c0,.08-.05.15-.15.23a1.39,1.39,0,0,1-.39.17,1.78,1.78,0,0,1-.53.08A1.6,1.6,0,0,1,16.64,78.63Z"/><path class="cls-4" d="M20.21,78.74a.12.12,0,0,1,0-.09.17.17,0,0,1,.06-.14.25.25,0,0,1,.16-.05h.12v-3h-.24a.08.08,0,0,1-.07,0,.17.17,0,0,1,0-.1.15.15,0,0,1,.06-.13.25.25,0,0,1,.16,0h.9a.07.07,0,0,1,.07.08c0,.08-.05.13-.16.16l-.22.07v3l.22.07c.11,0,.16.08.16.16a.07.07,0,0,1-.07.08h-1A.07.07,0,0,1,20.21,78.74Z"/><path class="cls-4" d="M22.94,78.74a.12.12,0,0,1,0-.09.17.17,0,0,1,.06-.14.25.25,0,0,1,.16-.05h.11l1.1-3.35h.54L26,78.47l.2,0,.12.06a.17.17,0,0,1,0,.1c0,.07,0,.1-.06.1H25.21a.07.07,0,0,1-.07,0,.12.12,0,0,1,0-.09.17.17,0,0,1,.06-.14.25.25,0,0,1,.15-.05h.18l-.28-.84H23.87l-.27.85.28.07.13.06a.15.15,0,0,1,0,.1s0,.08-.06.08H23A.07.07,0,0,1,22.94,78.74Zm2.17-1.46-.56-1.73L24,77.28Z"/><path class="cls-4" d="M27.87,78.67a.19.19,0,0,1,.05-.13.34.34,0,0,1,.17-.08l.13,0v-3H28a.1.1,0,0,1-.07,0,.3.3,0,0,1,0-.1.15.15,0,0,1,.06-.13.23.23,0,0,1,.15,0H29c.05,0,.07,0,.07.08s-.05.13-.15.16l-.25.07v3h1.43l.08-.33a1.67,1.67,0,0,1,.07-.19.12.12,0,0,1,.09-.06c.05,0,.08,0,.08.08v.85H28C27.9,78.78,27.87,78.74,27.87,78.67Z"/><path class="cls-4" d="M34.61,75.43h-.23a.08.08,0,0,1-.07,0,.17.17,0,0,1,0-.1.15.15,0,0,1,.06-.13.25.25,0,0,1,.16,0h.94c.05,0,.07,0,.07.08s-.06.14-.18.17l-.24.06.71,2.63a1.43,1.43,0,0,1,0,.22c0,.08,0,.13,0,.16h0l0-.16a1.43,1.43,0,0,1,0-.22l.74-2.94h.46l.8,2.94a1.43,1.43,0,0,1,0,.22,1.18,1.18,0,0,1,0,.16h0l0-.16a1.43,1.43,0,0,1,0-.22l.66-2.62h-.31a.1.1,0,0,1-.07,0,.16.16,0,0,1,0-.1.17.17,0,0,1,0-.13.25.25,0,0,1,.16,0h.86a.07.07,0,0,1,.07.08c0,.07,0,.12-.14.15l-.24.09-.87,3.35h-.57l-.72-2.68a1.86,1.86,0,0,1,0-.27,1.54,1.54,0,0,0,0-.19h0s0,.09,0,.19a1.86,1.86,0,0,1,0,.27l-.67,2.68h-.57Z"/><path class="cls-4" d="M41,78.67c0-.1.07-.18.22-.21l.13,0v-3l-.13,0a.34.34,0,0,1-.17-.08.2.2,0,0,1,0-.14c0-.07,0-.1.08-.1h2.59v.74c0,.06,0,.09-.08.09s-.07,0-.1-.07a.53.53,0,0,1-.06-.2l-.05-.22H41.84v1.29h1.28l.06-.23c0-.11.08-.16.13-.16s.07,0,.07.08v.95c0,.05,0,.07-.07.07s-.09,0-.13-.15l-.06-.23H41.84v1.37h1.62l0-.24a.57.57,0,0,1,.07-.2.1.1,0,0,1,.09-.06s.08,0,.08.09v.75H41.1C41.05,78.78,41,78.74,41,78.67Z"/><path class="cls-4" d="M45.43,78.67a.16.16,0,0,1,.06-.13.3.3,0,0,1,.16-.08l.13,0v-3l-.13,0c-.14,0-.22-.11-.22-.22s0-.1.08-.1H47a1.14,1.14,0,0,1,.79.25.92.92,0,0,1,.29.72.78.78,0,0,1-.13.46.74.74,0,0,1-.35.3v0a1,1,0,0,1,.49.33.93.93,0,0,1,.18.58,1,1,0,0,1-.3.75,1.17,1.17,0,0,1-.8.26H45.51S45.43,78.74,45.43,78.67Zm1.58-2a.53.53,0,0,0,.41-.17.69.69,0,0,0,.15-.46.64.64,0,0,0-.16-.47.6.6,0,0,0-.46-.17h-.69v1.27Zm.07,1.72a.69.69,0,0,0,.51-.18.72.72,0,0,0,.17-.5.77.77,0,0,0-.17-.52.66.66,0,0,0-.49-.19h-.84v1.39Z"/><path class="cls-4" d="M53,78.75a1.54,1.54,0,0,1-.53-.24v-.72a.08.08,0,0,1,.09-.09.12.12,0,0,1,.1,0,.76.76,0,0,1,.08.21l.07.32a.83.83,0,0,0,.34.16,1.65,1.65,0,0,0,.43.06,1.08,1.08,0,0,0,.56-.13.46.46,0,0,0,.23-.43.58.58,0,0,0-.09-.33.68.68,0,0,0-.26-.24l-.52-.27a2.56,2.56,0,0,1-.75-.48.92.92,0,0,1,.06-1.34,1.3,1.3,0,0,1,.79-.24,1.7,1.7,0,0,1,.59.1,1.37,1.37,0,0,1,.49.28v.68a.09.09,0,0,1,0,.06.06.06,0,0,1-.06,0,.11.11,0,0,1-.1-.06.76.76,0,0,1-.08-.21l-.07-.32a.91.91,0,0,0-.31-.16,1.62,1.62,0,0,0-.4,0,.77.77,0,0,0-.47.13.43.43,0,0,0-.19.39.49.49,0,0,0,.09.3.82.82,0,0,0,.26.22c.1.07.27.15.48.26l.1,0a2.65,2.65,0,0,1,.52.3.94.94,0,0,1,.31.35,1,1,0,0,1,.12.5.82.82,0,0,1-.35.72,1.48,1.48,0,0,1-.88.24A2.1,2.1,0,0,1,53,78.75Z"/><path class="cls-4" d="M56.42,78.74a.2.2,0,0,1,0-.09.17.17,0,0,1,.06-.14.23.23,0,0,1,.15-.05h.12v-3h-.24a.1.1,0,0,1-.07,0,.3.3,0,0,1,0-.1.15.15,0,0,1,.06-.13.23.23,0,0,1,.15,0h.91s.06,0,.06.08,0,.13-.15.16l-.22.07v3l.22.07c.1,0,.15.08.15.16s0,.08-.06.08h-1A.08.08,0,0,1,56.42,78.74Z"/><path class="cls-4" d="M60,78.74a.2.2,0,0,1,0-.09.17.17,0,0,1,.06-.14.23.23,0,0,1,.15-.05h.12v-3h-.77l-.05.27a.63.63,0,0,1-.06.17.11.11,0,0,1-.1,0,.08.08,0,0,1-.09-.09v-.75h2.63v.75c0,.06,0,.09-.1.09a.14.14,0,0,1-.1,0,1.07,1.07,0,0,1-.06-.17l-.05-.27h-.77v3l.22.07c.1,0,.15.08.15.16s0,.08-.06.08H60A.08.08,0,0,1,60,78.74Z"/><path class="cls-4" d="M63.41,78.67c0-.1.07-.18.22-.21l.13,0v-3l-.13,0a.34.34,0,0,1-.17-.08.2.2,0,0,1-.05-.14c0-.07,0-.1.08-.1h2.59v.74c0,.06,0,.09-.08.09s-.07,0-.1-.07a.73.73,0,0,1-.07-.2l0-.22H64.23v1.29h1.28l.06-.23c0-.11.08-.16.13-.16s.07,0,.07.08v.95c0,.05,0,.07-.07.07s-.1,0-.13-.15l-.06-.23H64.23v1.37h1.62l.05-.24A.57.57,0,0,1,66,78a.1.1,0,0,1,.09-.06s.08,0,.08.09v.75H63.49C63.44,78.78,63.41,78.74,63.41,78.67Z"/></g></g></svg>