<?xml version="1.0" encoding="utf-8"?>
<!-- Generator: Adobe Illustrator 22.1.0, SVG Export Plug-In . SVG Version: 6.00 Build 0)  -->
<svg version="1.1" id="レイヤー_1" xmlns="http://www.w3.org/2000/svg" xmlns:xlink="http://www.w3.org/1999/xlink" x="0px"
	 y="0px" width="413.6px" height="369.3px" viewBox="0 0 413.6 369.3" style="enable-background:new 0 0 413.6 369.3;"
	 xml:space="preserve">
<style type="text/css">
	.st0{fill:#5BBEE4;}
	.st1{fill:#7F1083;}
	.st2{fill:#FFFFFF;}
	.st3{fill:#7CC7E8;}
	.st4{fill:#878787;}
</style>
<g>
	<path class="st0" d="M204.3,253.9c-0.2,0-2.2,1.6-3.3,2.4h-20.9c-1.9-0.8-5.4-2.1-5.5-2.2c-0.1-0.1-0.4-0.1-0.3,0
		c1.2,12.4,0.8,32,0.4,43.7l0,0c0,0.1,0.1,0.2,0.2,0.2h4.9c0.1,0,0.2-0.1,0.2-0.2c0-1,0-2.2,0-3.3h22.4c0,1.2,0,2.3,0,3.3
		c0,0.1,0.1,0.2,0.2,0.2h4.5c0.1,0,0.2-0.1,0.2-0.2l0,0c-0.1-10.4-0.3-26.9,0.2-39c0.7-1.2,1.9-1.5,1.6-1.8
		C208.7,256.5,204.6,253.9,204.3,253.9 M202.3,273.4H180c0-7.3,0-13.6,0-15.9h22.5C202.4,259.9,202.3,266.1,202.3,273.4
		 M179.9,293.4c0-5.7,0-12.6,0-18.8h22.4c0,6.2,0,13.1,0,18.8H179.9z"/>
	<path class="st0" d="M255.6,288.6L255.6,288.6c-0.1-8.2-0.2-9.2,0.1-17.4c0.6-1,1.5-1.2,1.3-1.5c-0.3-0.4-3.6-2.4-3.8-2.4
		s-2.4,1.7-3,2.2h-8.7c-0.8-0.4-4.7-2-4.8-2.1c-0.1,0-0.3-0.1-0.3,0c1,9.9,0.6,11.9,0.3,21.3l0,0c0,0.1,0.1,0.1,0.1,0.1h3.6
		c0.1,0,0.1-0.1,0.1-0.1c0-1.3,0-2.5,0-3.7h11c0,1.1,0,2.3,0,3.5c0,0.1,0.1,0.1,0.1,0.1h3.6C255.5,288.7,255.6,288.7,255.6,288.6
		 M240.7,283.9c0-6.3,0-11,0-13.2h11c0,2.2,0,6.9,0,13.2H240.7z"/>
	<path class="st0" d="M263.7,257.5c-0.2,0-2.4,1.8-3.3,2.6h-19.5c1.2-1,4.7-3.9,5.5-4.6c0.9-0.9,2.2-0.5,2.4-1s-2.5-1.6-6.3-2.8
		c-0.2,1.3-1.6,6.5-2.9,8.4h-8.1c-1.7-0.8-5-2.1-5.1-2.2s-0.4-0.1-0.3,0c1.2,12.4,0.8,28.2,0.4,39.9l0,0c0,0.1,0.1,0.2,0.2,0.2h4.5
		c0.1,0,0.2-0.1,0.2-0.2c0.1-12.5,0-32,0-36.6H262c0,4.2-0.1,19.3,0,31.2c0,1.7-1,1.8-2.1,1.7c-1.7-0.2-5.4-0.7-5.6-0.5
		c-0.2,0.1-0.6,0.5,0.2,0.7c2.4,0.7,7.2,3.2,9.4,5c0.5-0.1,0.9-0.3,1.2-0.5c0.9-0.6,1.3-1.7,1.3-2.7c-0.1-10.3-0.3-22.1,0.2-33.7
		c0.7-1.2,1.9-1.5,1.6-1.8C267.8,260.1,264,257.5,263.7,257.5 M266,264.3v0.4l-0.2,1.4L266,264.3z M266,264.6c0-0.6,0.1-1,0.2-1.4
		L266,264.6z"/>
	<path class="st0" d="M327.5,298.4c-5.4-3.6-9.5-7.5-12.6-11.5c0.9-1.1,1.8-2.3,2.7-3.6c4.6-6.1,5.6-15.9,5.6-15.9h-20
		c0-1.4,0.1-2.9,0.1-4.4c0-1,0-3.5,0-5.3H323c0,0,2.5,0,2.5-0.4c0-0.6-4.9-4.6-5.2-4.6c-0.2,0-2.5,2.8-3.4,3.9h-12.6
		c-0.3-0.2-0.8-0.4-1.2-0.6l0,0H303c-2-1-4.7-2.3-4.7-2.3c-0.1-0.1-0.4-0.1-0.3,0c0.3,3.3,0.5,6.4,0.6,9.4c0,7,0.4,12.6-1.2,18.9
		c-1.9,0.7-4.3,1.4-6.8,2c0-5.2,0-10.6,0-15.4h6.5v-1.1c-0.7,0-2.4-2.9-3-2.9c-0.5,0-1.6,2.3-2.5,2.9h-1c0-6,0-10.8,0-12.3
		c1-0.3,1.2-1.3,1-1.3c-0.7-0.2-5.7-1.5-5.9-1.5c-0.1-0.1-0.4-0.1-0.3,0c0.5,5.4,0.7,10.3,0.8,15.2h-5.3v1.1h5.3
		c0,5.5-0.2,10.9-0.4,16.5c-3.3,0.7-5.9,1.3-6.1,1.4c0,1.1,1.1,4.6,1.8,5.3c0.3,0.3,0.7-0.7,1.5-1.1c0.7-0.4,9.1-4.5,14-7.7
		c-1,3.3-2.6,6.9-5.2,11c-0.2,0.3,0.2,0.9,0.7,0.5c7.8-6.4,10-15.4,10.5-26h15.1c-0.1,3.7-1.6,9.3-5.5,15.2
		c-2.1-3.4-3.6-6.9-4.5-10.3h-4c0-0.1,1.4,7,6.2,13.3c-3,3.7-7.2,7.4-12.7,10.8c-0.5,0.3-0.1,1,0.3,0.9c0.8-0.2,8.1-2.7,14.5-9.1
		l0.1,0.1c6.7,6.8,14.2,9.2,14.6,9.3C327.6,298.9,327.7,298.5,327.5,298.4"/>
	<polygon class="st1" points="309.5,37.6 309.5,230.7 123,230.7 108.7,245.5 325.2,245.5 325.2,21.3 	"/>
	<polygon class="st0" points="86,224.2 302.5,224.2 302.5,0 	"/>
	<path class="st2" d="M252.5,167.1l-27.9,37.7h22.5v9.2h5.4v-9.2h5.8v-1.6h-5.8V167.1z M247.1,203.3h-19.4l19.4-26.3V203.3z"/>
	<path class="st2" d="M277.5,183.5c-4.2,0-8,1.7-10.8,4.5l0,0c-0.5-11.3,4.6-20.4,13.3-19.4c5.2,1,9.3,5,10.2,10.3l1.5-0.3
		c-1.1-6.9-7.3-12-14.4-11.9c-5.3,0.1-10.2,3.4-12.6,8.4c-2.3,4.7-3.5,11.1-3,23.2c0.5,10.6,7.6,16.5,15.9,16.5
		c8.6,0,15.5-7.1,15.5-15.8C293.1,190.6,286.1,183.5,277.5,183.5 M277.1,213.5c-5.6,0-10.2-5.9-10.5-13.5c0-0.2,0-0.4,0-0.7l0,0
		c0-7.8,4.7-14.2,10.5-14.2c5.8,0,10.5,6.4,10.5,14.2S282.9,213.5,277.1,213.5"/>
	<polyline class="st3" points="286.7,251.8 286.7,251.8 286.6,251.7 286.4,252 	"/>
</g>
<g>
	<path class="st4" d="M22.8,367.2c-1.8,1-3.9,1.4-6.4,1.4s-4.5-0.4-6.4-1.4s-3.3-2.3-4.3-4.1c-1-1.6-1.8-3.5-2.3-5.5
		c-0.4-2.1-0.8-3.9-0.8-6.2s0.2-4.3,0.8-6.2c0.4-1.8,1.2-3.7,2.3-5.5c1-1.6,2.5-3.1,4.3-4.1c1.8-1,3.9-1.4,6.4-1.4s4.5,0.4,6.4,1.4
		c1.8,1,3.3,2.3,4.3,4.1c1,1.6,1.8,3.5,2.3,5.5c0.4,1.8,0.8,3.9,0.8,6.2s-0.2,4.3-0.8,6.2c-0.4,1.8-1.2,3.7-2.3,5.5
		C26.1,364.9,24.6,366.2,22.8,367.2z M16.2,365.7c1.8,0,3.5-0.4,4.7-1.2c1.4-0.8,2.5-2.1,3.3-3.3c0.8-1.4,1.4-2.9,1.6-4.5
		c0.4-1.6,0.6-3.3,0.6-4.9c0-2.5-0.4-4.9-1-7c-0.6-2.1-1.6-3.7-3.3-5.1c-1.6-1.4-3.7-2.1-6-2.1c-1.8,0-3.5,0.4-4.7,1.2
		c-1.4,0.8-2.5,2.1-3.3,3.3c-0.8,1.4-1.4,2.9-1.6,4.5c-0.4,1.6-0.6,3.3-0.6,4.9c0,2.5,0.2,4.9,0.8,7c0.6,2.1,1.6,3.7,3.3,5.1
		C11.9,365.1,14,365.7,16.2,365.7z"/>
	<path class="st4" d="M38.4,368.2v-33.3h19.3v3.1h-16v11.3h10.9v3.1H41.7V368h-3.3C38.4,368,38.4,368.2,38.4,368.2z"/>
	<path class="st4" d="M65.1,368.2v-33.3h19.3v3.1h-16v11.3h10.9v3.1H68.4V368h-3.3L65.1,368.2L65.1,368.2z"/>
	<path class="st4" d="M91.8,368.2v-33.3h3.3V368L91.8,368.2L91.8,368.2z"/>
	<path class="st4" d="M117.1,368.8c-2.5,0-4.5-0.4-6.4-1.4c-1.8-1-3.3-2.3-4.3-3.9s-1.8-3.5-2.5-5.5s-0.8-4.1-0.8-6.4
		c0-3.1,0.4-6,1.4-8.4c1-2.5,2.5-4.5,4.5-6.2c2.1-1.6,4.7-2.5,7.8-2.5c2.7,0,4.9,0.4,6.4,1.4c1.4,1,2.9,2.3,3.7,3.9l-2.9,1.6
		c-0.8-1.2-1.8-2.3-2.9-3.1c-1-0.8-2.5-1-4.3-1c-1.8,0-3.5,0.4-4.7,1.2c-1.4,0.8-2.5,2.1-3.3,3.3c-0.8,1.4-1.2,2.9-1.6,4.5
		s-0.6,3.3-0.6,4.9c0,2.5,0.4,4.9,1,7s1.8,3.7,3.5,5.1s3.5,2.1,5.8,2.1c3.5,0,6-1.4,7.6-4.3l2.9,1.2c-0.8,1.6-2.3,3.1-3.9,4.3
		C122,368.2,119.8,368.8,117.1,368.8z"/>
	<path class="st4" d="M135.6,368.2v-33.3h3.3V368L135.6,368.2L135.6,368.2z"/>
	<path class="st4" d="M168.1,368.2l-3.1-8.6H152l-2.9,8.6h-3.3l11.5-33.1h2.5l11.7,33.1H168.1z M164.2,356.7l-4.5-13.4
		c-0.4-1.4-0.8-2.5-1-3.1l-0.4,1.2c-0.2,0.8-0.4,1.4-0.6,1.8l-4.5,13.4H164.2z"/>
	<path class="st4" d="M178.3,368.2v-33.3h3.3v30h16.4v3.1L178.3,368.2L178.3,368.2z"/>
	<path class="st4" d="M217.8,368.2l-6.4-33.1h3.5l4.1,22.8l0.6,3.3c0-0.4,0.4-1.4,0.8-3.3l6.6-22.8h2.5l6.4,22.8
		c0.4,1.2,0.6,2.1,0.6,2.7l0.6-2.9l4.7-22.8h3.5l-7.2,33.1h-2.1l-7.2-23.8c-0.4-1.2-0.6-2.3-0.8-2.9c-0.2,0.6-0.4,1.6-0.8,2.9
		l-7.2,23.8L217.8,368.2L217.8,368.2z"/>
	<path class="st4" d="M252.5,368.2v-33.3h18.9v3.1h-15.6v11.3h10.5v3.1h-10.5v12.3h16.6v3.1h-19.9V368.2z"/>
	<path class="st4" d="M280.7,334.9h11.1c3.5,0,6.2,0.8,7.8,2.5c1.6,1.6,2.5,3.7,2.5,6.2c0,1.6-0.4,3.1-1.4,4.3s-2.3,2.1-3.9,2.7
		c1.8,0.4,3.5,1.4,4.7,2.9c1.2,1.4,1.8,3.3,1.8,5.3c0,2.7-0.8,4.9-2.5,6.6c-1.6,1.8-4.3,2.7-8,2.7h-11.7v-33.1H280.7z M290.9,349.5
		c2.5,0,4.5-0.6,5.8-1.6c1.4-1,2.1-2.5,2.1-4.3c0-3.7-2.3-5.5-6.8-5.5h-8v11.5H290.9z M293,365.1c2.5,0,4.3-0.6,5.3-1.6
		c1-1.2,1.6-2.7,1.6-4.3c0-4.5-2.9-6.8-8.4-6.8h-7.4v12.7C284.2,365.1,293,365.1,293,365.1z"/>
	<path class="st4" d="M331.4,368.8c-2.7,0-4.9-0.6-7-1.8c-2.1-1.2-3.3-2.9-4.1-4.7l3.1-1.2c0.6,1.4,1.6,2.7,3.1,3.5
		c1.4,0.8,3.1,1.2,4.9,1.2c2.3,0,3.9-0.6,5.1-1.6c1.2-1,1.8-2.7,1.8-4.5s-0.6-3.5-2.1-4.5c-1.4-1.2-3.1-2.3-5.5-3.1
		c-1.4-0.4-2.5-1-3.5-1.4c-1-0.4-2.1-1.2-3.1-1.8c-1-0.8-1.8-1.6-2.3-2.7c-0.6-1-0.8-2.3-0.8-3.5c0-2.3,0.8-4.1,2.7-5.5
		c1.8-1.4,4.1-2.3,7.2-2.3c2.5,0,4.5,0.4,6.2,1.4s2.7,2.3,3.1,3.7l-3.1,1c-0.4-1-1.2-1.6-2.3-2.5c-1-0.6-2.5-1-3.9-1
		c-1.8,0-3.5,0.4-4.5,1.2c-1,0.8-1.6,2.1-1.6,3.5c0,0.8,0.2,1.6,0.6,2.3c0.4,0.6,1,1.2,1.8,1.8s1.6,1,2.3,1.2
		c0.6,0.2,1.6,0.8,2.9,1.2c1.2,0.4,2.5,1,3.5,1.6c1,0.6,2.1,1.2,3.1,2.1c1,0.8,1.8,1.8,2.3,3.1c0.6,1.2,0.8,2.5,0.8,4.1
		c0,2.9-1,5.1-2.9,6.8C337.2,368,334.5,368.8,331.4,368.8z"/>
	<path class="st4" d="M350.5,368.2v-33.3h3.3V368L350.5,368.2L350.5,368.2z"/>
	<path class="st4" d="M374,338.2v30h-3.3v-30h-9v-3.1h21.6v3.1H374z"/>
	<path class="st4" d="M391,368.2v-33.3h18.9v3.1h-15.6v11.3h10.5v3.1h-10.5v12.3H411v3.1H391V368.2z"/>
</g>
</svg>
